<?xml version="1.0" standalone="no"?>
<!DOCTYPE svg PUBLIC "-//W3C//DTD SVG 20010904//EN"
 "http://www.w3.org/TR/2001/REC-SVG-20010904/DTD/svg10.dtd">
<svg version="1.0" xmlns="http://www.w3.org/2000/svg"
 width="6250.000000pt" height="6250.000000pt" viewBox="0 0 6250.000000 6250.000000"
 preserveAspectRatio="xMidYMid meet">

<g transform="translate(0.000000,6250.000000) scale(0.100000,-0.100000)"
fill="#000000" stroke="none">
<path d="M0 31250 l0 -31250 31250 0 31250 0 0 31250 0 31250 -31250 0 -31250
0 0 -31250z m31357 25019 c176 -19 350 -85 489 -184 228 -163 570 -640 794
-1109 265 -552 442 -1216 509 -1911 47 -479 45 -1079 -5 -1600 -95 -996 -369
-1971 -796 -2833 -72 -144 -95 -182 -107 -177 -54 21 -253 77 -351 99 -241 53
-324 61 -640 61 -316 0 -399 -8 -640 -61 -98 -22 -297 -78 -351 -99 -12 -5
-35 33 -107 177 -427 862 -701 1837 -796 2833 -50 521 -52 1121 -5 1600 87
894 343 1698 747 2345 134 214 321 460 436 573 181 178 429 283 699 296 15 0
71 -4 124 -10z m-5799 -1942 c194 -68 347 -233 397 -432 46 -180 -3 -397 -123
-543 l-35 -43 20 -27 c422 -576 3633 -5004 3633 -5010 0 -11 -135 -112 -149
-112 -5 0 -831 1132 -1836 2515 -1005 1383 -1829 2515 -1832 2515 -3 0 -38
-12 -77 -27 -62 -23 -87 -26 -191 -27 -97 -1 -133 3 -190 21 -135 43 -272 149
-343 267 -79 130 -109 298 -77 442 28 130 75 217 169 309 91 91 166 135 278
165 103 28 254 22 356 -13z m11736 13 c115 -29 189 -73 282 -165 62 -61 89
-97 117 -155 117 -245 72 -522 -115 -708 -71 -71 -162 -126 -253 -155 -57 -18
-93 -22 -190 -21 -104 1 -129 4 -191 27 -39 15 -74 27 -77 27 -3 0 -827 -1132
-1832 -2515 -1005 -1383 -1831 -2515 -1836 -2515 -14 0 -149 101 -149 112 0 6
3211 4434 3633 5010 l20 27 -35 43 c-91 112 -138 245 -138 393 0 156 53 298
151 408 154 173 389 244 613 187z m-13389 -4470 c888 -77 1838 -354 2759 -805
755 -369 1472 -873 2059 -1446 128 -125 160 -160 152 -172 -5 -9 -49 -73 -97
-144 -329 -487 -508 -1070 -508 -1654 0 -84 -2 -98 -17 -103 -29 -8 -367 -54
-518 -70 -486 -52 -1096 -54 -1580 -6 -529 53 -1021 146 -1532 291 -1518 430
-2649 1177 -3316 2189 -95 145 -143 237 -177 340 -126 390 1 840 313 1099 128
107 265 173 560 272 347 117 745 192 1147 219 159 10 585 5 755 -10z m15420
10 c421 -25 812 -98 1172 -219 295 -99 432 -165 560 -272 259 -216 402 -586
354 -920 -15 -104 -71 -274 -117 -356 -140 -251 -365 -542 -624 -806 -401
-411 -897 -763 -1475 -1047 -838 -412 -1843 -690 -2850 -790 -489 -48 -1091
-46 -1580 6 -151 16 -489 62 -517 70 -16 5 -18 19 -18 103 0 584 -179 1167
-508 1654 -48 71 -91 135 -97 144 -8 11 22 45 140 161 594 581 1310 1085 2071
1457 927 454 1917 741 2774 805 291 21 477 24 715 10z m-7698 -2334 c692 -147
1240 -629 1459 -1283 359 -1072 -269 -2222 -1365 -2497 -299 -76 -643 -76
-942 0 -328 82 -619 242 -863 474 -777 738 -807 1965 -68 2742 302 317 715
526 1162 588 36 5 162 7 280 5 184 -3 233 -7 337 -29z m-3404 -2899 c16 -49
27 -89 26 -91 -2 -1 -1334 -434 -2959 -962 l-2955 -960 -6 -114 c-12 -200 -86
-352 -229 -464 -191 -150 -436 -176 -658 -70 -96 46 -221 167 -270 261 -70
133 -89 293 -52 437 52 205 195 363 390 433 99 35 253 43 350 18 147 -38 271
-123 355 -242 28 -40 52 -72 55 -72 3 0 1330 431 2950 959 1620 527 2951 958
2959 957 9 -1 26 -38 44 -90z m9055 -867 c2316 -753 2957 -958 2963 -947 30
53 108 144 156 182 124 98 252 139 413 133 128 -5 222 -35 323 -104 210 -144
310 -411 247 -658 -29 -115 -73 -189 -165 -282 -91 -92 -184 -144 -302 -169
-269 -57 -553 76 -673 315 -46 92 -62 153 -69 270 l-6 114 -2955 960 c-1625
528 -2957 961 -2959 962 -3 3 47 160 56 177 2 4 7 7 10 7 3 0 1335 -432 2961
-960z m-8425 97 c220 -298 532 -583 842 -772 198 -120 425 -226 628 -291 55
-18 87 -33 87 -42 0 -28 -51 -317 -86 -486 -234 -1137 -750 -2271 -1482 -3256
-830 -1117 -1802 -1843 -2858 -2134 -242 -67 -389 -80 -555 -51 -459 80 -789
431 -851 905 -16 123 -16 600 0 750 70 643 239 1210 548 1830 175 351 330 611
561 938 692 981 1545 1780 2534 2375 185 111 546 307 566 307 7 0 36 -33 66
-73z m5061 -28 c1143 -607 2123 -1480 2899 -2581 231 -327 386 -587 561 -938
309 -620 478 -1187 548 -1830 16 -150 16 -627 0 -750 -62 -474 -392 -825 -851
-905 -166 -29 -313 -16 -555 51 -1056 291 -2028 1017 -2858 2134 -732 985
-1248 2119 -1482 3256 -35 169 -86 458 -86 486 0 9 32 24 88 42 569 184 1105
571 1469 1063 30 40 59 73 65 73 7 0 98 -46 202 -101z m-2564 -4514 c0 -2484
3 -3116 13 -3119 197 -53 312 -131 407 -278 95 -147 121 -347 66 -515 -30 -91
-104 -212 -163 -264 -215 -188 -522 -217 -749 -71 -89 58 -129 96 -184 178
-136 204 -140 472 -10 672 95 147 210 225 408 278 9 3 12 635 12 3119 l0 3115
100 0 100 0 0 -3115z m-12051 -13369 l22 -23 -457 -2534 c-251 -1394 -463
-2570 -471 -2614 -17 -97 -12 -169 16 -224 72 -139 225 -89 487 162 50 48 100
87 111 87 25 0 43 -19 43 -45 0 -40 -314 -369 -455 -476 -149 -114 -277 -168
-420 -176 -215 -13 -329 61 -370 240 -20 89 -21 290 -1 423 9 54 186 1026 395
2159 209 1133 384 2095 390 2138 22 160 8 258 -43 315 -28 30 -40 36 -88 40
-67 5 -169 -21 -298 -78 -101 -45 -112 -43 -125 12 -7 26 -3 29 147 104 566
284 1060 522 1077 517 11 -3 29 -15 40 -27z m28700 -2 c15 -20 17 -31 10 -66
-5 -24 -214 -1172 -465 -2553 -410 -2252 -457 -2521 -458 -2620 -1 -97 2 -115
22 -152 59 -111 157 -103 327 24 44 34 121 97 170 142 50 44 98 81 107 81 10
0 25 -11 34 -25 16 -24 15 -27 -12 -62 -16 -21 -92 -102 -169 -182 -317 -325
-523 -441 -763 -429 -229 11 -312 126 -312 435 0 163 15 277 85 648 30 159 52
291 50 293 -2 2 -18 -25 -36 -59 -44 -90 -151 -277 -217 -384 -254 -411 -562
-732 -828 -864 -139 -69 -231 -93 -379 -98 -149 -6 -244 12 -359 67 -366 174
-469 681 -271 1333 247 817 952 1589 1658 1815 178 58 239 67 427 66 150 0
173 -3 254 -27 49 -15 90 -26 92 -24 2 2 76 390 165 863 198 1058 203 1115
114 1212 -33 37 -34 37 -112 37 -85 -1 -159 -21 -291 -81 -40 -18 -79 -31 -87
-28 -13 5 -33 70 -24 78 7 6 1184 583 1199 588 24 8 49 -3 69 -28z m-21050 2
l23 -25 -356 -2003 c-197 -1102 -359 -2014 -362 -2028 -4 -22 -3 -23 6 -5 5
11 30 70 55 130 260 623 613 1078 969 1250 151 73 226 90 396 89 155 -1 210
-13 305 -68 55 -33 128 -112 160 -176 55 -108 68 -187 68 -395 0 -228 7 -181
-174 -1155 -121 -651 -141 -770 -142 -865 -2 -94 1 -115 18 -144 82 -138 231
-87 505 175 42 41 86 74 97 74 24 0 43 -19 43 -43 0 -42 -319 -374 -465 -485
-160 -120 -324 -178 -483 -170 -199 10 -287 103 -314 331 -17 143 3 285 152
1104 150 823 168 956 150 1105 -25 209 -115 308 -280 307 -143 0 -244 -54
-411 -219 -145 -144 -261 -315 -388 -573 -232 -470 -398 -1012 -527 -1722 -20
-110 -40 -208 -45 -217 -15 -28 -70 -64 -129 -84 -46 -16 -85 -19 -235 -19
-202 0 -245 9 -245 52 0 13 18 101 40 196 21 95 53 249 69 342 17 94 201 1095
410 2225 209 1130 385 2095 392 2145 29 221 -26 345 -152 345 -66 0 -181 -32
-287 -80 -51 -22 -96 -39 -101 -36 -14 9 -30 62 -22 74 13 21 1175 590 1207
591 20 1 38 -7 53 -23z m9696 -710 c157 -23 286 -54 426 -102 204 -69 261
-102 275 -158 5 -22 -99 -995 -112 -1037 -10 -35 -81 -31 -89 5 -2 11 -16 74
-31 140 -97 445 -327 801 -607 942 -113 58 -201 76 -357 76 -212 0 -341 -43
-492 -163 -97 -76 -172 -171 -236 -296 -65 -126 -99 -228 -117 -350 -35 -230
-5 -401 101 -584 53 -92 151 -214 230 -289 91 -86 357 -307 507 -423 333 -255
530 -424 638 -549 138 -160 241 -344 286 -514 23 -86 26 -119 27 -254 0 -176
-14 -269 -69 -436 -112 -341 -337 -638 -635 -839 -332 -223 -712 -327 -1200
-328 -383 0 -699 64 -1046 213 -135 58 -174 92 -174 149 0 42 207 1159 219
1181 4 8 22 16 39 18 26 3 32 -1 37 -20 3 -13 16 -79 31 -148 140 -683 436
-1100 852 -1199 273 -65 552 -17 772 132 66 45 176 154 225 222 129 181 198
427 199 710 1 182 -17 262 -94 420 -126 260 -315 458 -750 784 -560 419 -763
640 -864 944 -86 255 -40 621 116 932 103 203 309 418 533 555 234 144 556
249 855 279 120 12 374 5 505 -13z m-24592 -56 c509 -30 906 -158 1249 -403
350 -251 598 -624 698 -1052 99 -424 51 -975 -129 -1497 -156 -450 -415 -862
-756 -1203 -398 -399 -893 -681 -1416 -810 -249 -61 -332 -70 -649 -69 -157 0
-337 6 -400 12 -245 25 -569 33 -921 22 -189 -5 -386 -10 -436 -10 -91 0 -93
0 -99 26 -4 14 -2 36 4 48 10 22 17 23 144 29 73 3 156 12 183 20 159 44 235
141 290 370 13 56 178 968 366 2027 358 2023 367 2082 339 2200 -27 113 -127
166 -340 178 l-115 7 -3 49 -3 49 163 -7 c461 -18 938 -19 1185 -2 232 15 302
19 428 24 28 1 125 -3 218 -8z m9008 -174 c144 -31 238 -116 274 -249 24 -90
17 -257 -14 -338 -57 -150 -217 -233 -411 -215 -176 16 -294 98 -351 245 -32
81 -33 252 -1 332 71 178 281 272 503 225z m28510 0 c144 -31 238 -116 274
-249 24 -90 17 -257 -14 -338 -57 -150 -217 -233 -411 -215 -176 16 -294 98
-351 245 -32 81 -33 252 -1 332 71 178 281 272 503 225z m-19132 -1157 c17 -6
31 -13 31 -15 0 -2 -25 -142 -55 -310 -30 -169 -55 -313 -55 -321 0 -22 160
-15 752 33 117 10 225 14 240 11 76 -19 25 -180 -95 -300 -73 -73 -71 -73
-395 -33 -325 40 -534 59 -543 48 -4 -4 -87 -455 -185 -1002 -162 -902 -178
-1006 -179 -1110 0 -86 5 -128 18 -167 26 -74 92 -143 169 -178 56 -26 77 -29
189 -33 104 -4 140 -1 210 17 119 29 283 115 419 217 110 84 115 86 140 73 46
-26 37 -49 -47 -130 -114 -108 -293 -252 -413 -332 -252 -166 -465 -239 -705
-239 -184 -1 -353 47 -450 127 -122 99 -179 285 -156 508 6 58 83 500 171 982
193 1056 190 1038 190 1150 0 137 -30 173 -161 194 -35 6 -84 12 -109 13 -41
3 -45 5 -48 32 -8 66 -1 73 95 80 260 21 455 122 633 328 70 80 152 202 195
288 15 30 32 61 37 68 13 15 64 16 107 1z m8700 0 c17 -6 31 -13 31 -15 0 -2
-25 -142 -55 -310 -30 -169 -55 -313 -55 -321 0 -22 160 -15 752 33 117 10
225 14 240 11 76 -19 25 -180 -95 -300 -73 -73 -71 -73 -395 -33 -325 40 -534
59 -543 48 -4 -4 -87 -455 -185 -1002 -162 -902 -178 -1006 -179 -1110 0 -86
5 -128 18 -167 26 -74 92 -143 169 -178 56 -26 77 -29 189 -33 104 -4 140 -1
210 17 119 29 283 115 419 217 110 84 115 86 140 73 46 -26 37 -49 -47 -130
-114 -108 -293 -252 -413 -332 -252 -166 -465 -239 -705 -239 -184 -1 -353 47
-450 127 -122 99 -179 285 -156 508 6 58 83 500 171 982 193 1056 190 1038
190 1150 0 137 -30 173 -161 194 -35 6 -84 12 -109 13 -41 3 -45 5 -48 32 -8
66 -1 73 95 80 260 21 455 122 633 328 70 80 152 202 195 288 15 30 32 61 37
68 13 15 64 16 107 1z m-22456 -504 c326 -57 461 -247 367 -520 -135 -393
-784 -759 -1678 -945 -73 -16 -135 -30 -137 -32 -11 -11 -27 -229 -27 -373 0
-273 35 -450 122 -631 86 -177 204 -302 354 -374 103 -49 183 -64 341 -63 253
0 474 64 682 198 40 26 80 45 90 43 10 -2 22 -16 27 -31 11 -31 9 -34 -139
-151 -177 -140 -351 -236 -546 -300 -432 -141 -865 -116 -1146 67 -84 54 -201
171 -258 257 -196 297 -252 708 -159 1170 112 557 476 1095 954 1410 227 149
486 248 730 279 111 14 331 12 423 -4z m35799 0 c54 -8 141 -29 193 -46 347
-115 579 -421 657 -869 17 -98 16 -409 -1 -525 -83 -566 -256 -953 -575 -1292
-270 -287 -607 -471 -977 -534 -104 -18 -149 -20 -279 -16 -168 6 -239 19
-371 67 -296 107 -527 402 -604 772 -40 189 -48 440 -20 653 74 564 312 1039
690 1377 267 239 563 377 900 421 76 10 299 5 387 -8z m-31597 -44 c153 -67
210 -237 175 -519 -6 -45 -92 -499 -191 -1009 -153 -788 -181 -946 -186 -1048
-4 -112 -3 -123 19 -164 32 -63 68 -86 128 -85 84 3 172 57 362 221 105 91
132 105 156 81 29 -29 11 -57 -150 -223 -337 -347 -542 -465 -792 -453 -243
11 -339 154 -323 478 8 141 15 182 218 1205 157 791 163 824 164 945 0 102 -3
131 -18 158 -44 81 -139 93 -257 33 -91 -46 -159 -98 -277 -214 -108 -106
-128 -114 -152 -60 -10 23 -8 31 16 67 42 61 318 334 403 398 141 106 274 174
403 203 91 21 238 14 302 -14z m4055 3 c23 -60 5 -221 -41 -367 -31 -99 -24
-97 -141 -40 -113 57 -168 74 -302 98 -84 14 -206 21 -206 10 0 -2 16 -29 35
-59 129 -202 165 -491 100 -810 -59 -294 -171 -514 -366 -720 -218 -230 -496
-385 -795 -442 -91 -17 -329 -24 -371 -10 -18 6 -25 -1 -47 -46 -55 -114 -60
-245 -12 -342 33 -67 131 -161 249 -240 47 -31 238 -135 424 -229 344 -176
452 -238 579 -334 149 -111 273 -273 321 -418 23 -70 26 -96 26 -210 1 -204
-46 -364 -153 -524 -308 -458 -1028 -744 -1748 -693 -92 7 -212 21 -267 33
-305 62 -549 200 -680 384 -182 254 -177 535 14 825 115 175 406 406 814 645
75 44 136 82 136 85 0 3 -27 25 -61 50 -208 155 -266 325 -184 544 49 130 137
238 339 414 l98 85 -88 43 c-349 169 -514 572 -432 1055 56 335 194 598 428
821 111 106 223 185 356 251 371 184 825 190 1096 16 l62 -41 106 41 c186 72
344 113 551 144 14 3 53 5 88 6 58 1 63 -1 72 -25z m16535 5 c87 -27 160 -95
196 -184 22 -55 24 -73 23 -220 l-1 -160 -96 -485 c-245 -1235 -256 -1305
-238 -1465 18 -151 82 -263 173 -300 62 -26 177 -23 251 5 130 49 292 189 421
363 245 331 477 886 641 1532 57 224 142 621 160 746 14 94 64 137 194 165 78
16 279 18 350 3 84 -18 86 -26 56 -170 -15 -68 -42 -198 -60 -289 -41 -196
-349 -1871 -371 -2015 -27 -174 -5 -305 58 -349 14 -10 44 -16 78 -16 102 0
225 75 397 243 l112 110 26 -17 c45 -30 34 -56 -81 -186 -325 -369 -602 -531
-884 -518 -111 6 -168 27 -223 83 -72 74 -99 211 -85 425 4 58 41 298 83 534
42 236 74 433 73 438 -2 5 -24 -42 -48 -104 -25 -62 -93 -210 -151 -328 -307
-617 -672 -984 -1061 -1064 -98 -20 -266 -21 -343 -1 -227 59 -348 218 -374
495 -10 104 -2 263 19 398 6 36 78 407 161 826 82 419 154 804 160 856 22 198
-20 290 -133 290 -85 0 -168 -53 -379 -242 -85 -77 -113 -90 -137 -66 -25 25
-9 53 89 164 183 207 381 380 509 444 56 28 162 65 210 73 69 12 162 6 225
-14z m7920 -8 c153 -67 210 -237 175 -519 -6 -45 -92 -499 -191 -1009 -153
-788 -181 -946 -186 -1048 -4 -112 -3 -123 19 -164 32 -63 68 -86 128 -85 84
3 172 57 362 221 105 91 132 105 156 81 29 -29 11 -57 -150 -223 -337 -347
-542 -465 -792 -453 -243 11 -339 154 -323 478 8 141 15 182 218 1205 157 791
163 824 164 945 0 102 -3 131 -18 158 -44 81 -139 93 -257 33 -91 -46 -159
-98 -277 -214 -108 -106 -128 -114 -152 -60 -10 23 -8 31 16 67 42 61 318 334
403 398 141 106 274 174 403 203 91 21 238 14 302 -14z"/>
<path d="M31149 46579 c-110 -11 -191 -34 -296 -84 -113 -53 -166 -89 -255
-173 -121 -115 -223 -290 -265 -459 -26 -103 -23 -352 5 -455 91 -333 348
-588 679 -675 82 -21 120 -25 233 -25 113 0 151 4 233 25 331 87 588 342 679
675 28 103 31 352 5 455 -55 218 -202 433 -382 557 -65 45 -218 116 -291 134
-54 14 -232 38 -259 34 -5 0 -44 -4 -86 -9z m248 -618 c75 -36 133 -94 170
-169 24 -50 28 -69 28 -147 0 -77 -4 -98 -27 -147 -66 -142 -220 -223 -374
-198 -115 19 -213 93 -262 198 -23 49 -27 70 -27 147 0 78 4 97 28 147 37 75
95 133 170 169 53 25 74 29 147 29 73 0 94 -4 147 -29z"/>
<path d="M46105 23020 c-511 -91 -889 -616 -1024 -1422 -43 -251 -45 -518 -6
-668 69 -268 278 -390 549 -320 272 69 573 370 830 832 240 430 379 912 337
1163 -31 182 -154 321 -350 393 -74 27 -244 38 -336 22z"/>
<path d="M11650 25053 c-140 -18 -258 -69 -316 -137 -49 -57 -111 -186 -134
-281 -11 -44 -167 -903 -346 -1910 -302 -1690 -327 -1841 -331 -1972 -5 -124
-3 -151 16 -210 48 -158 171 -224 439 -239 356 -19 741 82 1059 279 658 409
1084 1199 1215 2257 20 164 17 674 -5 825 -78 529 -276 918 -586 1150 -151
114 -314 185 -506 220 -88 16 -427 29 -505 18z"/>
<path d="M15990 23159 c-30 -5 -92 -27 -138 -50 -218 -107 -414 -412 -531
-824 -32 -116 -71 -295 -64 -295 20 0 221 57 315 89 393 136 609 286 723 501
62 118 95 281 75 374 -32 154 -187 238 -380 205z"/>
<path d="M51895 23176 c-75 -20 -102 -33 -176 -81 -266 -177 -450 -571 -540
-1155 -31 -198 -34 -635 -6 -805 54 -327 152 -558 299 -703 109 -108 210 -152
348 -152 472 0 834 678 857 1606 6 237 -3 372 -38 554 -72 371 -241 639 -457
721 -71 27 -214 35 -287 15z"/>
<path d="M23311 23159 c-168 -34 -360 -277 -455 -576 -102 -324 -111 -809 -19
-1083 80 -241 240 -380 412 -356 195 27 396 279 486 609 49 183 59 274 59 537
-1 268 -12 370 -60 522 -32 101 -64 167 -115 235 -65 87 -196 135 -308 112z"/>
<path d="M22509 19776 c-328 -261 -462 -495 -463 -811 -1 -139 13 -197 76
-317 47 -90 143 -199 232 -263 212 -151 522 -225 818 -197 243 23 359 70 483
196 131 133 179 247 178 426 -1 198 -39 286 -193 441 -151 153 -247 213 -675
426 -144 71 -281 142 -306 156 l-45 27 -105 -84z"/>
</g>
</svg>
