<?xml version="1.0" standalone="no"?>
<!DOCTYPE svg PUBLIC "-//W3C//DTD SVG 20010904//EN"
 "http://www.w3.org/TR/2001/REC-SVG-20010904/DTD/svg10.dtd">
<svg version="1.0" xmlns="http://www.w3.org/2000/svg"
 width="6250.000000pt" height="6250.000000pt" viewBox="0 0 6250.000000 6250.000000"
 preserveAspectRatio="xMidYMid meet">

<g transform="translate(0.000000,6250.000000) scale(0.100000,-0.100000)"
fill="#000000" stroke="none">
<path d="M31130 56270 c-158 -20 -321 -80 -451 -165 -140 -93 -320 -299 -514
-590 -605 -908 -888 -2075 -844 -3480 36 -1156 284 -2230 743 -3222 64 -140
156 -325 174 -351 7 -11 34 -6 138 28 130 41 341 88 509 112 56 8 193 13 365
13 172 0 309 -5 365 -13 168 -24 379 -71 509 -112 104 -34 131 -39 138 -28 18
26 110 211 174 351 529 1143 787 2446 743 3762 -12 374 -37 634 -95 980 -154
922 -530 1763 -1058 2368 -149 170 -346 286 -566 332 -86 18 -249 26 -330 15z"/>
<path d="M25220 54344 c-216 -46 -409 -236 -461 -454 -7 -30 -13 -95 -13 -145
0 -110 15 -177 62 -275 50 -104 167 -222 272 -274 150 -73 318 -84 475 -31 64
21 81 24 91 13 6 -7 827 -1136 1824 -2508 996 -1372 1817 -2499 1824 -2504 8
-6 36 9 84 44 40 29 72 56 72 61 0 5 -818 1135 -1818 2512 -1000 1376 -1821
2507 -1825 2514 -4 7 13 41 43 81 90 123 126 248 118 405 -21 378 -373 642
-748 561z"/>
<path d="M36995 54341 c-263 -65 -448 -289 -463 -558 -8 -157 28 -282 118
-405 30 -40 47 -74 43 -81 -4 -7 -825 -1138 -1825 -2514 -1000 -1377 -1818
-2507 -1818 -2512 0 -5 32 -32 72 -61 48 -35 76 -50 84 -44 7 5 828 1132 1824
2504 997 1372 1818 2501 1824 2508 10 11 27 8 91 -13 157 -53 325 -42 475 31
105 52 222 170 272 274 47 98 62 165 62 275 0 110 -15 177 -62 275 -50 104
-167 222 -272 274 -133 65 -285 82 -425 47z"/>
<path d="M23205 49884 c-464 -26 -929 -118 -1320 -261 -252 -93 -380 -167
-506 -292 -208 -208 -311 -480 -296 -780 10 -198 59 -341 186 -544 298 -475
736 -926 1246 -1283 1015 -711 2417 -1170 3895 -1275 212 -15 818 -15 1025 0
284 21 746 76 818 97 15 5 17 18 17 98 0 328 70 717 186 1032 86 234 274 580
405 745 l29 37 -173 168 c-685 670 -1538 1235 -2459 1628 -809 345 -1591 551
-2343 616 -129 11 -595 20 -710 14z"/>
<path d="M38805 49884 c-552 -34 -1009 -111 -1525 -259 -1334 -383 -2561
-1084 -3497 -1999 l-173 -168 29 -37 c131 -165 319 -511 405 -745 116 -315
186 -704 186 -1032 0 -80 2 -93 18 -98 75 -22 546 -78 822 -97 220 -16 803
-15 1020 0 1351 96 2655 492 3645 1109 626 390 1151 898 1496 1449 127 203
176 346 186 544 15 300 -88 572 -296 780 -90 90 -171 146 -295 205 -331 156
-827 282 -1296 329 -148 15 -599 27 -725 19z"/>
<path d="M31010 47569 c-186 -24 -416 -90 -580 -166 -399 -186 -738 -522 -929
-925 -323 -678 -228 -1470 247 -2059 82 -102 259 -270 361 -343 236 -169 491
-279 786 -339 96 -19 141 -22 355 -22 261 0 316 7 520 61 204 55 435 167 621
300 102 73 279 241 361 343 242 300 389 657 428 1040 59 583 -159 1172 -587
1582 -311 298 -685 476 -1113 529 -97 12 -375 11 -470 -1z m410 -1000 c202
-37 411 -157 543 -312 106 -123 190 -305 216 -467 54 -334 -93 -696 -368 -899
-78 -58 -227 -131 -316 -154 -219 -59 -433 -39 -644 59 -329 153 -541 486
-541 849 0 585 533 1028 1110 924z"/>
<path d="M31160 45984 c-217 -58 -323 -298 -220 -500 106 -207 379 -255 549
-96 163 154 143 425 -41 546 -55 36 -149 67 -203 65 -16 0 -55 -7 -85 -15z"/>
<path d="M25220 43780 c-1620 -528 -2948 -959 -2952 -960 -3 0 -17 19 -31 43
-98 166 -286 275 -492 285 -158 7 -285 -33 -413 -129 -195 -148 -281 -442
-198 -681 72 -205 247 -359 458 -402 95 -20 145 -20 241 -2 296 57 508 324
495 624 l-3 73 260 85 c143 46 1475 479 2960 961 1485 482 2702 878 2704 879
9 7 -57 179 -70 181 -8 1 -1339 -430 -2959 -957z"/>
<path d="M34307 44733 c-9 -17 -59 -174 -56 -177 2 -1 1219 -397 2704 -879
1485 -482 2817 -915 2960 -961 l260 -85 -3 -73 c-13 -300 199 -567 495 -624
96 -18 146 -18 241 2 111 22 213 76 297 155 119 114 180 243 191 406 24 355
-255 653 -611 653 -225 0 -422 -115 -540 -314 -9 -15 -316 82 -2966 943 -1626
529 -2959 961 -2962 961 -3 0 -8 -3 -10 -7z"/>
<path d="M28645 43881 c-1006 -522 -1895 -1257 -2628 -2171 -852 -1064 -1320
-2104 -1439 -3200 -16 -147 -16 -646 0 -765 34 -259 118 -431 297 -610 281
-281 614 -365 1034 -260 1175 293 2277 1158 3168 2486 620 923 1038 1905 1253
2944 31 152 80 435 80 466 0 13 -16 22 -57 34 -87 25 -326 122 -426 171 -419
211 -793 525 -1069 898 -33 45 -61 82 -62 83 -1 1 -69 -33 -151 -76z"/>
<path d="M33661 43899 c-258 -366 -663 -709 -1088 -923 -100 -49 -339 -146
-425 -171 -42 -12 -58 -21 -58 -34 0 -31 49 -313 80 -466 215 -1037 633 -2021
1253 -2944 891 -1328 1993 -2193 3168 -2486 420 -105 753 -21 1034 260 179
179 263 351 297 610 19 141 15 629 -5 810 -58 502 -177 947 -382 1433 -442
1050 -1296 2160 -2290 2977 -431 354 -969 706 -1442 944 l-100 50 -42 -60z"/>
<path d="M31150 39335 c0 -2484 -3 -3116 -12 -3119 -66 -16 -164 -54 -211 -83
-114 -69 -213 -190 -257 -316 -31 -86 -39 -267 -16 -357 37 -147 124 -272 247
-356 118 -80 186 -99 349 -99 163 0 231 19 349 99 123 84 210 209 247 356 23
90 15 271 -16 357 -44 126 -143 247 -257 316 -47 29 -145 67 -210 83 -10 3
-13 635 -13 3119 l0 3115 -100 0 -100 0 0 -3115z"/>
<path d="M18590 25660 c-322 -159 -586 -294 -588 -300 -2 -6 -1 -22 2 -35 9
-35 43 -33 142 10 116 50 229 78 283 70 57 -9 105 -54 121 -116 31 -114 25
-153 -379 -2339 -210 -1136 -389 -2119 -397 -2185 -31 -233 -10 -402 62 -506
62 -89 219 -128 384 -95 150 31 262 95 439 250 89 78 322 323 345 363 12 22
-10 63 -35 63 -12 0 -59 -35 -115 -87 -120 -111 -240 -197 -305 -218 -89 -30
-155 -3 -181 74 -30 89 -21 143 296 1906 169 935 375 2080 458 2544 l152 843
-27 24 c-16 13 -38 24 -50 23 -12 0 -285 -130 -607 -289z"/>
<path d="M26300 25662 c-321 -159 -586 -294 -588 -301 -2 -6 -1 -23 2 -36 8
-32 38 -33 108 -2 71 32 203 74 254 82 149 23 222 -94 195 -317 -14 -118 -748
-4096 -836 -4533 -36 -176 -65 -330 -65 -342 0 -32 47 -44 190 -50 141 -6 248
7 322 39 70 30 94 63 108 150 6 40 31 172 55 293 199 999 530 1784 904 2137
140 133 252 188 378 188 206 -1 297 -176 272 -529 -5 -76 -54 -369 -139 -836
-148 -809 -160 -886 -160 -1037 0 -130 13 -195 53 -271 79 -151 287 -189 527
-96 144 55 328 202 527 422 148 163 148 163 134 193 -18 41 -47 29 -142 -58
-273 -251 -423 -300 -490 -162 -41 86 -34 143 124 999 80 429 151 823 158 875
8 52 13 174 13 270 -1 145 -4 188 -22 252 -57 210 -163 320 -348 364 -93 22
-279 14 -384 -16 -332 -95 -651 -406 -929 -907 -61 -110 -176 -353 -221 -468
-25 -65 -45 -96 -35 -55 3 14 165 918 361 2010 l354 1985 -25 23 c-15 12 -36
22 -49 22 -12 0 -285 -130 -606 -288z"/>
<path d="M47285 25661 c-324 -159 -591 -294 -593 -300 -2 -7 -1 -23 2 -36 9
-35 36 -32 155 15 137 55 233 76 287 61 91 -25 130 -111 121 -267 -4 -68 -320
-1809 -331 -1821 0 -1 -39 10 -86 24 -118 34 -303 42 -455 19 -561 -87 -1189
-572 -1580 -1222 -330 -548 -458 -1179 -322 -1584 58 -169 160 -288 312 -360
115 -54 169 -65 325 -64 116 1 148 5 224 28 184 55 354 164 535 340 225 220
478 580 655 935 26 51 49 91 52 88 2 -2 -22 -154 -55 -338 -80 -448 -84 -477
-79 -636 5 -150 21 -211 74 -280 118 -154 413 -146 656 20 114 77 256 205 394
356 122 133 139 162 112 189 -24 24 -51 10 -139 -74 -159 -150 -271 -222 -363
-231 -46 -5 -55 -2 -84 22 -46 38 -67 116 -58 214 3 42 209 1203 457 2581 248
1378 453 2519 456 2536 6 36 -26 74 -62 74 -11 0 -286 -130 -610 -289z m-959
-2646 c153 -29 291 -119 361 -237 41 -67 73 -191 73 -280 0 -286 -178 -779
-425 -1178 -148 -238 -367 -487 -514 -584 -225 -150 -475 -162 -621 -30 -131
119 -177 284 -167 603 13 432 164 947 368 1256 128 192 314 346 498 410 148
52 293 66 427 40z"/>
<path d="M36010 25229 c-113 -14 -271 -50 -380 -85 -136 -44 -381 -167 -495
-249 -286 -205 -474 -499 -552 -865 -27 -125 -24 -385 5 -495 41 -154 151
-344 287 -493 58 -64 274 -246 485 -407 300 -229 396 -311 541 -455 196 -195
276 -311 334 -483 84 -251 68 -572 -44 -851 -103 -258 -324 -453 -596 -528
-67 -18 -106 -21 -245 -21 -139 0 -178 3 -245 21 -429 118 -705 512 -845 1212
-27 132 -28 135 -55 138 -15 2 -32 -1 -37 -6 -7 -7 -204 -1014 -225 -1153 -10
-67 15 -94 140 -155 211 -101 423 -164 672 -201 170 -25 611 -25 778 0 439 66
776 227 1052 502 218 218 350 458 417 763 17 77 22 131 22 262 1 222 -23 335
-104 506 -103 214 -360 474 -800 809 -402 306 -563 447 -663 581 -210 279
-257 559 -151 895 99 314 317 538 589 606 98 24 316 24 404 -1 205 -56 359
-175 500 -386 120 -180 207 -398 267 -675 9 -44 22 -83 28 -87 15 -10 48 -10
64 0 8 6 30 168 67 493 30 266 56 495 59 509 7 42 -19 86 -66 113 -103 60
-400 146 -613 178 -139 20 -465 25 -595 8z"/>
<path d="M11425 25160 c-430 -31 -499 -32 -1232 -5 l-163 6 0 -43 0 -44 128
-12 c70 -6 150 -18 179 -27 149 -45 188 -163 144 -440 -54 -346 -674 -3812
-697 -3895 -40 -145 -81 -227 -143 -282 -69 -63 -144 -86 -323 -100 l-138 -11
0 -38 c0 -21 4 -40 9 -44 5 -3 217 0 471 6 469 12 758 6 1015 -23 166 -18 570
-15 710 6 944 139 1796 767 2244 1654 95 190 158 345 211 527 226 774 166
1425 -178 1935 -299 444 -761 713 -1402 815 -120 20 -646 29 -835 15z m605
-141 c175 -24 359 -89 497 -175 166 -103 347 -313 452 -523 229 -457 288
-1109 160 -1781 -184 -964 -654 -1689 -1305 -2014 -196 -98 -411 -161 -633
-187 -129 -14 -342 -7 -437 15 -136 32 -226 109 -261 224 -40 130 -43 106 311
2122 179 1020 333 1880 342 1910 38 139 92 239 162 302 51 46 78 60 168 88
129 39 341 46 544 19z"/>
<path d="M20836 25000 c-126 -23 -244 -117 -287 -228 -26 -68 -31 -206 -10
-289 19 -78 80 -166 143 -207 82 -53 151 -69 282 -64 136 6 200 31 270 109 72
81 91 139 91 294 0 127 -1 132 -33 197 -39 80 -102 139 -179 168 -63 23 -202
34 -277 20z"/>
<path d="M49340 24999 c-206 -40 -320 -194 -307 -414 10 -166 75 -273 204
-337 59 -29 76 -32 177 -36 215 -8 331 58 398 227 18 46 22 76 22 176 1 110
-1 125 -26 178 -40 85 -79 130 -145 164 -90 48 -211 64 -323 42z"/>
<path d="M30343 23849 c-6 -8 -25 -43 -43 -79 -76 -153 -224 -332 -352 -428
-118 -89 -267 -144 -437 -162 -51 -6 -97 -13 -102 -16 -14 -8 -11 -84 4 -88 6
-2 53 -8 103 -14 100 -11 145 -29 169 -66 24 -36 33 -118 24 -214 -4 -48 -85
-508 -179 -1022 -119 -653 -172 -967 -176 -1040 -7 -124 11 -241 50 -325 51
-112 165 -201 306 -241 75 -21 297 -29 390 -15 269 41 538 190 876 484 152
132 168 150 155 175 -6 11 -22 23 -35 26 -21 5 -45 -8 -133 -74 -243 -181
-497 -265 -699 -231 -219 37 -328 202 -295 446 9 67 345 1954 356 2004 6 23 7
23 108 17 169 -11 292 -25 502 -57 239 -36 252 -35 331 46 53 55 124 180 124
219 0 12 -7 32 -16 44 -13 19 -24 22 -77 22 -34 0 -100 -4 -147 -10 -230 -26
-780 -57 -780 -44 0 5 24 149 54 319 32 182 51 314 46 319 -16 16 -115 20
-127 5z"/>
<path d="M38954 23788 c-143 -287 -365 -495 -610 -571 -63 -20 -226 -47 -282
-47 -12 0 -22 -51 -16 -77 5 -17 17 -21 80 -26 204 -18 246 -67 231 -270 -4
-44 -84 -502 -178 -1016 -154 -839 -172 -950 -177 -1072 -4 -116 -1 -149 17
-220 62 -244 244 -358 574 -359 242 0 451 72 713 249 186 124 474 369 474 402
0 18 -35 49 -55 49 -6 0 -46 -27 -90 -60 -151 -116 -293 -191 -445 -235 -88
-25 -263 -27 -341 -2 -157 48 -239 168 -239 350 0 45 62 416 181 1085 100 560
183 1019 185 1021 7 8 350 -22 503 -45 311 -46 310 -46 346 -34 44 14 142 120
178 192 29 57 36 125 15 146 -15 15 -100 15 -227 2 -117 -13 -449 -36 -633
-46 l-138 -7 0 23 c0 13 23 151 50 307 28 156 50 292 50 302 0 21 -26 31 -87
31 l-43 0 -36 -72z"/>
<path d="M16210 23359 c-366 -46 -742 -237 -1048 -533 -272 -262 -505 -666
-597 -1036 -43 -170 -59 -311 -59 -510 0 -263 35 -432 126 -615 140 -279 340
-440 632 -508 126 -29 442 -31 591 -3 286 53 575 193 823 399 90 76 105 100
80 125 -21 21 -43 14 -132 -42 -108 -68 -209 -110 -356 -149 -107 -28 -127
-31 -290 -31 -164 0 -180 1 -255 27 -114 38 -196 90 -280 178 -221 232 -310
600 -260 1073 8 76 17 141 19 143 3 3 78 20 168 39 380 79 704 192 1008 350
384 200 593 416 632 651 40 240 -109 401 -407 442 -87 12 -299 12 -395 0z
m-73 -214 c62 -19 145 -89 166 -142 27 -70 29 -115 8 -218 -61 -296 -271 -506
-665 -660 -103 -40 -291 -97 -395 -120 l-34 -7 7 38 c37 203 120 457 206 633
135 272 286 426 467 476 66 18 179 18 240 0z"/>
<path d="M52035 23356 c-713 -118 -1289 -713 -1469 -1518 -52 -231 -60 -302
-60 -528 0 -233 12 -329 60 -481 69 -220 195 -410 347 -525 271 -205 693 -249
1098 -114 595 198 1063 731 1233 1405 59 234 71 331 71 600 0 236 -2 256 -27
362 -80 338 -254 576 -513 704 -156 77 -262 100 -480 105 -119 2 -207 -1 -260
-10z m68 -181 c264 -56 455 -341 539 -805 29 -166 36 -522 14 -718 -63 -542
-234 -974 -472 -1191 -188 -172 -439 -202 -631 -74 -272 180 -436 716 -395
1291 28 391 112 758 232 1007 114 237 291 418 463 474 102 33 154 36 250 16z"/>
<path d="M20575 23326 c-206 -47 -397 -177 -668 -455 -135 -138 -148 -155
-145 -184 2 -24 9 -34 30 -41 26 -9 34 -3 146 106 167 164 275 228 382 228 49
0 100 -35 125 -85 16 -32 20 -59 19 -140 0 -88 -23 -213 -187 -1041 -103 -518
-192 -986 -197 -1040 -23 -217 24 -395 122 -461 69 -46 109 -57 213 -57 119
-1 181 13 292 64 140 65 226 132 423 330 194 194 222 229 204 258 -22 35 -53
26 -123 -37 -96 -85 -233 -186 -294 -218 -72 -37 -154 -38 -191 -3 -40 36 -60
118 -53 214 3 45 87 511 186 1036 99 525 186 1001 192 1058 25 238 -34 390
-176 453 -63 28 -211 35 -300 15z"/>
<path d="M24705 23329 c-154 -20 -429 -100 -548 -161 l-37 -19 -33 25 c-267
200 -811 186 -1183 -32 -478 -279 -741 -760 -721 -1322 6 -177 27 -264 98
-410 45 -91 63 -117 139 -192 76 -75 102 -94 189 -135 55 -26 101 -50 100 -53
0 -3 -23 -23 -51 -45 -85 -66 -270 -256 -313 -320 -64 -97 -88 -167 -93 -270
-3 -74 0 -100 17 -145 28 -73 105 -173 186 -239 36 -29 65 -56 65 -60 0 -3
-48 -33 -107 -66 -58 -33 -172 -103 -252 -156 -396 -260 -587 -459 -684 -711
-30 -79 -32 -90 -31 -218 0 -113 4 -146 23 -200 152 -442 742 -668 1506 -579
354 41 709 176 956 362 90 67 241 222 290 297 108 164 149 289 156 477 8 198
-18 302 -111 441 -127 192 -299 315 -741 531 -340 167 -535 284 -635 381 -59
57 -106 149 -115 225 -8 61 8 148 40 222 l23 51 134 -5 c226 -10 415 33 628
143 147 75 264 160 377 274 211 213 338 453 404 760 29 138 31 393 5 515 -21
97 -64 202 -111 274 -20 30 -33 56 -30 59 11 11 236 -19 322 -43 48 -14 130
-47 182 -72 l94 -46 18 21 c42 53 86 360 60 425 -10 26 -13 27 -78 26 -38 -1
-99 -6 -138 -10z m-1229 -186 c71 -24 155 -112 199 -206 79 -172 117 -369 117
-612 1 -258 -34 -487 -104 -684 -125 -356 -357 -542 -573 -460 -144 54 -268
260 -316 529 -21 111 -18 416 4 570 45 310 120 512 255 689 124 162 272 224
418 174z m-366 -3506 c270 -142 480 -284 578 -391 57 -63 113 -170 132 -256 7
-30 13 -91 13 -135 0 -167 -54 -297 -172 -415 -123 -123 -267 -181 -493 -199
-289 -24 -564 41 -773 182 -79 53 -183 158 -229 230 -156 243 -135 596 50 847
67 91 196 222 307 311 l98 79 187 -96 c103 -53 239 -124 302 -157z"/>
<path d="M41190 23325 c-92 -21 -231 -93 -328 -171 -162 -129 -432 -417 -432
-458 0 -25 17 -46 38 -46 7 0 59 42 115 93 56 51 127 111 157 134 123 93 229
117 289 68 42 -36 56 -85 54 -195 -1 -80 -26 -221 -161 -885 -93 -457 -166
-840 -173 -910 -14 -142 -7 -362 16 -454 64 -264 249 -392 545 -378 58 3 140
15 182 26 289 76 580 335 841 749 85 135 227 417 297 590 30 73 56 129 58 124
1 -5 -32 -214 -74 -463 -71 -417 -77 -465 -77 -594 0 -165 20 -245 77 -311 57
-66 119 -88 251 -88 133 0 204 18 331 80 135 67 249 158 447 355 149 148 177
181 177 206 0 31 -16 53 -38 53 -8 0 -50 -33 -92 -74 -229 -218 -397 -303
-488 -246 -58 36 -77 95 -76 230 1 104 18 205 177 1065 97 523 190 1015 207
1095 34 155 70 346 70 366 0 29 -64 39 -240 39 -208 0 -271 -14 -331 -73 -31
-32 -38 -47 -49 -112 -64 -390 -184 -873 -305 -1228 -228 -671 -511 -1137
-799 -1320 -161 -102 -354 -92 -441 22 -14 19 -36 60 -48 92 -20 53 -22 77
-22 244 l1 185 141 695 c78 382 149 736 157 785 68 393 17 620 -157 696 -66
29 -202 35 -297 14z"/>
<path d="M49061 23320 c-183 -45 -381 -179 -621 -421 -179 -180 -191 -196
-166 -234 9 -14 25 -25 35 -25 10 0 67 48 127 108 199 196 349 268 453 214 54
-27 75 -79 79 -192 3 -84 -4 -132 -62 -425 -304 -1540 -317 -1610 -323 -1725
-13 -251 52 -395 201 -447 76 -27 229 -24 326 6 184 56 364 187 588 428 137
146 157 175 143 202 -21 38 -57 26 -134 -44 -164 -148 -301 -234 -386 -243
-43 -4 -52 -1 -84 28 -21 18 -41 47 -47 68 -27 97 -16 169 165 1127 207 1097
205 1083 205 1210 0 166 -42 271 -133 332 -82 55 -224 68 -366 33z"/>
<path d="M25100 13635 l0 -125 6150 0 6150 0 0 125 0 125 -6150 0 -6150 0 0
-125z"/>
</g>
</svg>
