<svg xmlns="http://www.w3.org/2000/svg" viewBox="1825 386 2600 2600">
  <rect x="1825" y="386" width="2600" height="2600" fill="#1C0A2E"/>
  <g transform="translate(0 6250) scale(0.1 -0.1)" fill="#C9A96E">
<path d="M31130 56270 c-158 -20 -321 -80 -451 -165 -140 -93 -320 -299 -514 -590 -605 -908 -888 -2075 -844 -3480 36 -1156 284 -2230 743 -3222 64 -140 156 -325 174 -351 7 -11 34 -6 138 28 130 41 341 88 509 112 56 8 193 13 365 13 172 0 309 -5 365 -13 168 -24 379 -71 509 -112 104 -34 131 -39 138 -28 18 26 110 211 174 351 529 1143 787 2446 743 3762 -12 374 -37 634 -95 980 -154 922 -530 1763 -1058 2368 -149 170 -346 286 -566 332 -86 18 -249 26 -330 15z"/>
<path d="M25220 54344 c-216 -46 -409 -236 -461 -454 -7 -30 -13 -95 -13 -145 0 -110 15 -177 62 -275 50 -104 167 -222 272 -274 150 -73 318 -84 475 -31 64 21 81 24 91 13 6 -7 827 -1136 1824 -2508 996 -1372 1817 -2499 1824 -2504 8 -6 36 9 84 44 40 29 72 56 72 61 0 5 -818 1135 -1818 2512 -1000 1376 -1821 2507 -1825 2514 -4 7 13 41 43 81 90 123 126 248 118 405 -21 378 -373 642 -748 561z"/>
<path d="M36995 54341 c-263 -65 -448 -289 -463 -558 -8 -157 28 -282 118 -405 30 -40 47 -74 43 -81 -4 -7 -825 -1138 -1825 -2514 -1000 -1377 -1818 -2507 -1818 -2512 0 -5 32 -32 72 -61 48 -35 76 -50 84 -44 7 5 828 1132 1824 2504 997 1372 1818 2501 1824 2508 10 11 27 8 91 -13 157 -53 325 -42 475 31 105 52 222 170 272 274 47 98 62 165 62 275 0 110 -15 177 -62 275 -50 104 -167 222 -272 274 -133 65 -285 82 -425 47z"/>
<path d="M23205 49884 c-464 -26 -929 -118 -1320 -261 -252 -93 -380 -167 -506 -292 -208 -208 -311 -480 -296 -780 10 -198 59 -341 186 -544 298 -475 736 -926 1246 -1283 1015 -711 2417 -1170 3895 -1275 212 -15 818 -15 1025 0 284 21 746 76 818 97 15 5 17 18 17 98 0 328 70 717 186 1032 86 234 274 580 405 745 l29 37 -173 168 c-685 670 -1538 1235 -2459 1628 -809 345 -1591 551 -2343 616 -129 11 -595 20 -710 14z"/>
<path d="M38805 49884 c-552 -34 -1009 -111 -1525 -259 -1334 -383 -2561 -1084 -3497 -1999 l-173 -168 29 -37 c131 -165 319 -511 405 -745 116 -315 186 -704 186 -1032 0 -80 2 -93 18 -98 75 -22 546 -78 822 -97 220 -16 803 -15 1020 0 1351 96 2655 492 3645 1109 626 390 1151 898 1496 1449 127 203 176 346 186 544 15 300 -88 572 -296 780 -90 90 -171 146 -295 205 -331 156 -827 282 -1296 329 -148 15 -599 27 -725 19z"/>
<path d="M31010 47569 c-186 -24 -416 -90 -580 -166 -399 -186 -738 -522 -929 -925 -323 -678 -228 -1470 247 -2059 82 -102 259 -270 361 -343 236 -169 491 -279 786 -339 96 -19 141 -22 355 -22 261 0 316 7 520 61 204 55 435 167 621 300 102 73 279 241 361 343 242 300 389 657 428 1040 59 583 -159 1172 -587 1582 -311 298 -685 476 -1113 529 -97 12 -375 11 -470 -1z m410 -1000 c202 -37 411 -157 543 -312 106 -123 190 -305 216 -467 54 -334 -93 -696 -368 -899 -78 -58 -227 -131 -316 -154 -219 -59 -433 -39 -644 59 -329 153 -541 486 -541 849 0 585 533 1028 1110 924z"/>
<path d="M31160 45984 c-217 -58 -323 -298 -220 -500 106 -207 379 -255 549 -96 163 154 143 425 -41 546 -55 36 -149 67 -203 65 -16 0 -55 -7 -85 -15z"/>
<path d="M25220 43780 c-1620 -528 -2948 -959 -2952 -960 -3 0 -17 19 -31 43 -98 166 -286 275 -492 285 -158 7 -285 -33 -413 -129 -195 -148 -281 -442 -198 -681 72 -205 247 -359 458 -402 95 -20 145 -20 241 -2 296 57 508 324 495 624 l-3 73 260 85 c143 46 1475 479 2960 961 1485 482 2702 878 2704 879 9 7 -57 179 -70 181 -8 1 -1339 -430 -2959 -957z"/>
<path d="M34307 44733 c-9 -17 -59 -174 -56 -177 2 -1 1219 -397 2704 -879 1485 -482 2817 -915 2960 -961 l260 -85 -3 -73 c-13 -300 199 -567 495 -624 96 -18 146 -18 241 2 111 22 213 76 297 155 119 114 180 243 191 406 24 355 -255 653 -611 653 -225 0 -422 -115 -540 -314 -9 -15 -316 82 -2966 943 -1626 529 -2959 961 -2962 961 -3 0 -8 -3 -10 -7z"/>
<path d="M28645 43881 c-1006 -522 -1895 -1257 -2628 -2171 -852 -1064 -1320 -2104 -1439 -3200 -16 -147 -16 -646 0 -765 34 -259 118 -431 297 -610 281 -281 614 -365 1034 -260 1175 293 2277 1158 3168 2486 620 923 1038 1905 1253 2944 31 152 80 435 80 466 0 13 -16 22 -57 34 -87 25 -326 122 -426 171 -419 211 -793 525 -1069 898 -33 45 -61 82 -62 83 -1 1 -69 -33 -151 -76z"/>
<path d="M33661 43899 c-258 -366 -663 -709 -1088 -923 -100 -49 -339 -146 -425 -171 -42 -12 -58 -21 -58 -34 0 -31 49 -313 80 -466 215 -1037 633 -2021 1253 -2944 891 -1328 1993 -2193 3168 -2486 420 -105 753 -21 1034 260 179 179 263 351 297 610 19 141 15 629 -5 810 -58 502 -177 947 -382 1433 -442 1050 -1296 2160 -2290 2977 -431 354 -969 706 -1442 944 l-100 50 -42 -60z"/>
<path d="M31150 39335 c0 -2484 -3 -3116 -12 -3119 -66 -16 -164 -54 -211 -83 -114 -69 -213 -190 -257 -316 -31 -86 -39 -267 -16 -357 37 -147 124 -272 247 -356 118 -80 186 -99 349 -99 163 0 231 19 349 99 123 84 210 209 247 356 23 90 15 271 -16 357 -44 126 -143 247 -257 316 -47 29 -145 67 -210 83 -10 3 -13 635 -13 3119 l0 3115 -100 0 -100 0 0 -3115z"/>
  </g>
</svg>
